<?xml version="1.0" encoding="utf-8"?>
<!-- Generator: Adobe Illustrator 22.1.0, SVG Export Plug-In . SVG Version: 6.00 Build 0)  -->
<svg version="1.1" id="Layer_1" xmlns="http://www.w3.org/2000/svg" xmlns:xlink="http://www.w3.org/1999/xlink" x="0px" y="0px"
	 viewBox="0 0 1366 768" style="enable-background:new 0 0 1366 768;" xml:space="preserve">
<style type="text/css">
	.st0{fill:#FFE600;}
	.st1{fill:#FCFAA2;}
	.st2{fill:#7FFFD4;}
</style>
<g>
	<g id="XMLID_1_">
		<g>
			<path d="M459.8,349.6c-0.5-0.5-0.9-0.9-1.4-1.3c-4-3.6-8.5-6.6-13.4-9c-0.3-0.2-0.6-0.3-0.8-0.4c-0.9-0.4-1.8-0.9-2.7-1.2
				c-0.1-0.1-0.2-0.1-0.3-0.1c-0.7-0.3-1.4-0.6-2.2-0.9c-1.4-0.5-2.8-1.1-4.2-1.5c-0.4-0.1-0.8-0.3-1.1-0.4c-0.5-0.2-1-0.3-1.5-0.4
				c-16.3-4.9-32.9-5-49.7-1.6c-43.1,8.6-86.4,15.9-130,21.4c-7.8,1-13.3,2.9-13.9,11.7c-0.1,1.4-1,2.8-1.6,4.2
				c-1.5,4-1.9,5.2,0,5.4c0.3,0.1,0.8,0.1,1.3,0.1c0.2,0,0.3,0,0.5,0c0.6,0,1.3-0.1,2.1-0.1c39.5-2.9,79.1-5.8,118.6-8.8
				c17.1-1.3,34.2-2.8,51.3-4.1c0.6-0.1,1.2-0.1,1.8-0.1c2.5,0,4.8,0.5,7.1,1.3c0,0,0.1,0,0.1,0c0,0,0,0,0,0
				c0.3,0.1,0.6,0.3,0.9,0.3c0,0,0,0,0,0c0.1,0,0.1,0.1,0.2,0.1c0.3,0.2,0.7,0.3,1.1,0.5c0,0,0,0,0,0c3.8,2.1,6.7,5.3,7.9,9.3
				c3.4,11.3,10.6,17.9,20.1,21.8c0.7,0.3,1.3,0.6,2,0.8c2,0.8,4.2,1.4,6.4,2c0.4,0.1,0.8,0.2,1.2,0.3c0.2,0.1,0.4,0.1,0.6,0.1
				c2.3,0.5,4.7,0.9,7,1.2c0,0,0,0,0.1,0c1.8,0.2,3.5,0.4,5.2,0.5c3.4,0.1,6.9,0.1,10.4-0.1c1.6-0.1,3.2-0.2,4.8-0.4
				c1.6-0.2,3.3-0.4,4.9-0.7c14.7-2.4,27.2-8.5,32.8-24c3.5-9.5,8.9-13.2,18.1-13.2c0.2,0,0.5,0,0.7,0c0.6,0,1.3,0,1.9,0.1
				c0.3,0,0.7,0.1,1,0.1c9.2,0.9,18.3,1.7,27.4,2.4c44.7,3.3,89.5,6.5,134.2,9.8v0c0.1,0,0.2,0,0.3,0c0,0.1,0,0.1,0,0.1
				c0.1,0,0.1,0,0.2,0c3.6,0.3,7.3,0.5,10.8,0.9c1.3,0.1,2.2,0.1,2.7-0.3c0.1,0,0.1-0.1,0.2-0.2c0.1-0.1,0.2-0.3,0.2-0.5
				c0-0.1,0-0.2,0-0.3v-0.1c0-0.3-0.1-0.7-0.3-1.1c0,0,0,0,0,0c0-0.2-0.1-0.4-0.1-0.7c-0.2-0.5-0.5-1.1-0.8-1.7
				c0-0.1-0.1-0.1-0.1-0.2c-0.9-1.7-1.7-3.4-1.8-5.2c-0.5-6-3.1-9.3-7.3-10.6c-0.1,0-0.2-0.1-0.3-0.1c-0.3-0.1-0.5-0.2-0.8-0.2
				c0,0,0,0,0,0c-0.4-0.1-0.7-0.2-1.1-0.2c-0.6-0.1-1.2-0.2-1.8-0.2c-0.2,0-0.4,0-0.6,0c-0.5,0-1.1-0.1-1.7,0h-0.1
				c-0.2,0-0.3,0-0.4,0h0c-40.8-5.4-81.5-12.1-121.9-19.9c-2.7-0.5-5.4-1-8.1-1.6c-5.9-1.2-11.8-1.9-17.5-2.2c-3.7-0.2-7.3-0.2-11,0
				c-12.4,0.7-24.5,3.8-36.1,10.2c-11.4,6.3-21.4,14.3-22.3,29c-0.1,1.4-0.6,2.6-1.5,3.6c-2.4,2.8-5.1,5-9,4.5h-0.1
				c-0.2,0-0.5-0.1-0.8-0.1c-1-0.2-2-0.6-2.8-1c-0.2-0.1-0.4-0.2-0.5-0.3c-0.7-0.4-1.3-0.9-1.8-1.4c1.3,1.3,3.1,2.1,5.2,2.6
				c0,0,0.1,0,0.1,0c0.3,0.1,0.5,0.1,0.8,0.1c-0.2,0-0.5-0.1-0.8-0.1c0,0,0,0,0,0c-3.7-0.9-6.2-2.9-7.4-6.3c-0.2-0.5-0.3-1-0.4-1.5
				c-0.7-3.6-1.3-7.2-2.9-10.5c-0.1-0.2-0.2-0.4-0.3-0.7c-0.4-0.9-0.9-1.7-1.5-2.5c-1-1.4-2-2.7-3.1-3.9c0-0.1-0.1-0.1-0.2-0.2
				c-0.2-0.2-0.3-0.4-0.5-0.6c-0.1-0.1-0.2-0.3-0.4-0.4c-0.1-0.1-0.3-0.3-0.4-0.4C460.3,350.1,460.1,349.9,459.8,349.6L459.8,349.6
				C459.9,349.7,459.9,349.7,459.8,349.6C459.9,349.6,459.8,349.6,459.8,349.6z M787,386.9c3.5,5.4,4.4,11.2,2.1,17.4
				c-3.4,7.6-9.2,11.1-18.4,10.5c-14.5-0.9-28.9-2-43.4-3.1c-34.4-2.6-68.8-5.2-103.2-7.8c-21.9-1.7-43.8-3.2-65.8-5
				c-2.9-0.2-5.1,0-6.8,2.8c-11.5,18.1-28.7,27.9-49.3,31.8c-21.2,4-42.4,3.7-63-4.1c-14.2-5.4-26.1-13.9-34.4-26.9
				c-1.8-2.8-3.8-3.9-7.4-3.6c-56.1,4.4-112.3,8.5-168.4,12.8c-14.4,1.1-28.9,2.2-43.4,3.2c-9.4,0.7-15.3-2.7-19-10.5
				c-0.6-2.1-1.2-4.2-1.8-6.3c0-0.7,0-1.3,0-2c1.1-1.9,1.4-4,2-6.1c3.2-7.3,9.3-10,16.7-10.6c7.5-0.5,14.9-1.1,22.4-1.4
				c3-0.1,4.8-1.1,6.4-3.7c6.2-9.7,9.1-20.6,11.3-31.8c0.7-3.5,1.8-5.1,5.8-5.6c39.4-5.3,78.8-10.7,117.9-18.2
				c18.6-3.6,37-8.4,56.2-8.3c28.2,0,53.6,7.1,73.5,28.4c1.6,1.7,2.6,1.5,4,0c27-28.2,60.9-32.6,96.8-26.1
				c50.4,9.1,100.9,17.9,151.8,24.4c2.8,0.4,4,1.2,4.5,4.1c1.8,9.6,4.2,19.1,8.6,28c2.8,5.7,5.9,9.8,13.3,9.2
				c5.6-0.4,11.3,0.5,16.9,1.1C778.8,380,784,381.6,787,386.9z M444,338.7c-1.6-0.8-3.2-1.5-4.9-2.2c-1.4-0.5-2.8-1.1-4.3-1.5
				c1.4,0.5,2.8,1,4.2,1.5C440.7,337.2,442.4,337.9,444,338.7z"/>
			<path class="st0" d="M410.7,362.3c0,0-0.1,0-0.1,0c-17.1,1.3-34.2,2.8-51.3,4.1c-39.5,3-79.1,5.9-118.6,8.8
				c-0.8,0-1.5,0.1-2.1,0.1c0.6,0,1.3,0,2.2-0.1c39.6-2.9,79.1-5.8,118.6-8.8C376.5,365.1,393.6,363.6,410.7,362.3z M415.9,362.6
				c0.9,0.2,1.8,0.4,2.7,0.6C417.8,362.9,416.9,362.7,415.9,362.6z M420.6,363.9c-0.3-0.1-0.6-0.3-1-0.4
				C419.9,363.6,420.3,363.8,420.6,363.9z M723.1,374.4v0.1c-0.1,0.8-0.6,1.1-1.5,1.2c-0.4,0-1,0-1.6-0.1c-2-0.2-4.1-0.4-6.2-0.5
				c-1.6-0.1-3.2-0.2-4.8-0.4c-0.1,0-0.2,0-0.3,0v-0.1c-44.8-3.3-89.7-6.5-134.5-9.8c-9.2-0.7-18.3-1.5-27.4-2.4
				c-0.3-0.1-0.6-0.1-0.9-0.1c-0.7-0.1-1.3-0.1-1.9-0.1c-9.6-0.2-15.2,3.5-18.8,13.2c-5.6,15.5-18.1,21.6-32.8,24
				c-3.2,0.5-6.4,0.9-9.7,1.1c-3.4,0.3-6.9,0.3-10.4,0.1c-1.7-0.1-3.4-0.2-5-0.4c0,0,0,0-0.1,0c-2.4-0.3-4.7-0.7-7-1.2
				c-0.2,0-0.4-0.1-0.6-0.1c-0.5-0.1-1-0.2-1.5-0.4c-2.1-0.5-4.1-1.1-6.1-1.9c-0.7-0.2-1.4-0.5-2-0.8c-9.4-4-16.5-10.6-19.8-21.7
				c-1.2-4-4.2-7.2-8-9.3c-0.1,0-0.1,0-0.2-0.1c0,0,0,0,0,0c-0.4-0.2-0.8-0.4-1.3-0.6c0,0,0,0,0,0c-0.3-0.1-0.6-0.3-0.9-0.3
				c0,0,0,0,0,0c-0.1,0-0.2-0.1-0.3-0.1c-2.7-1-5.7-1.4-8.8-1.2c-17.1,1.3-34.2,2.8-51.3,4.1c-39.5,3-79,5.9-118.6,8.8
				c-0.8,0-1.6,0.1-2.2,0.1c-0.7,0-1.2,0-1.6,0c-1.5-0.4-1.1-1.6,0.4-5.3c0.5-1.4,1.4-2.8,1.6-4.2c0.7-8.8,6.2-10.7,13.9-11.7
				c43.6-5.4,86.9-12.8,130-21.4c16.8-3.3,33.4-3.3,49.6,1.6c0.4,0.1,0.8,0.2,1.2,0.3c0.4,0.1,0.7,0.2,1.1,0.4
				c0.1,0,0.2,0.1,0.2,0.1c1.4,0.5,2.8,1,4.2,1.5c0.7,0.3,1.3,0.5,2,0.8c0.1,0.1,0.2,0.1,0.3,0.1c0.8,0.4,1.6,0.7,2.4,1.1
				c0.3,0.2,0.6,0.3,0.8,0.4c4.9,2.4,9.4,5.3,13.4,9c0.5,0.4,1,0.9,1.5,1.4c1.9,1.9,3.7,4,5.4,6.4c2.9,4.1,3.7,8.8,4.6,13.5
				c0,0.2,0.1,0.5,0.2,0.7c0.1,0.3,0.1,0.5,0.2,0.8c0,0,0,0,0,0.1c0.1,0.2,0.1,0.4,0.2,0.6c0.1,0.3,0.2,0.5,0.3,0.8
				c0.1,0.2,0.2,0.4,0.4,0.6c0.8,1.4,1.9,2.4,3.2,3.2c0.2,0.1,0.4,0.2,0.5,0.3c0.9,0.5,1.9,0.9,3,1.1c0.3,0.1,0.6,0.1,0.9,0.1h0.1
				c3.9,0.5,6.6-1.7,9.1-4.5c0.9-1,1.4-2.2,1.5-3.6c0.9-14.7,10.8-22.7,22.3-29c11.6-6.4,23.7-9.5,36-10.2c3.6-0.2,7.3-0.2,11,0
				c5.8,0.3,11.6,1.1,17.4,2.2c43.1,8.5,86.4,15.8,130,21.5h0.1c0.2,0,0.3,0.1,0.5,0c0.6,0,1.1,0,1.7,0c1.4,0.1,2.7,0.3,3.9,0.6
				c4.1,1.3,6.8,4.4,7.5,10c0,0.2,0.1,0.5,0.1,0.7c0,1.7,0.8,3.5,1.7,5.2c0,0.1,0.1,0.1,0.1,0.2c0.2,0.5,0.5,1.1,0.8,1.6
				c0.2,0.3,0.3,0.6,0.4,0.9c0,0,0,0,0,0C722.9,373.7,723,374.1,723.1,374.4z"/>
			<path class="st1" d="M723.1,374.5c0,0.1,0,0.2,0,0.3c-0.1,0.5-0.7,0.8-1.5,0.9C722.5,375.6,723,375.2,723.1,374.5z"/>
			<path class="st1" d="M723.1,374.8c0,0.2-0.1,0.3-0.2,0.5c0,0.1-0.1,0.1-0.2,0.2c-0.5,0.3-1.5,0.4-2.9,0.2c-2-0.2-4-0.4-6-0.5
				c2.1,0.1,4.2,0.3,6.2,0.5c0.6,0.1,1.1,0.1,1.6,0.1C722.4,375.6,722.9,375.4,723.1,374.8z"/>
			<path class="st1" d="M722.7,375.4c0.1,0,0.1-0.1,0.2-0.2C722.8,375.3,722.7,375.4,722.7,375.4z"/>
			<path class="st2" d="M722.7,372.6c0,0.2,0.1,0.5,0.1,0.7c-0.1-0.3-0.2-0.5-0.4-0.9c-0.3-0.5-0.6-1.1-0.8-1.6
				c0-0.1-0.1-0.1-0.1-0.2c-0.8-1.7-1.5-3.4-1.7-5.2c0-0.2,0-0.5-0.1-0.7c-0.7-5.4-3.1-8.5-7-9.8c4.2,1.4,6.9,4.6,7.3,10.6
				c0.1,1.8,0.9,3.5,1.8,5.2c0,0.1,0.1,0.1,0.1,0.2C722.2,371.5,722.5,372.1,722.7,372.6z"/>
			<path class="st1" d="M719.8,375.6c1.4,0.2,2.3,0.2,2.9-0.2c-0.5,0.4-1.4,0.4-2.7,0.3c-3.5-0.4-7.2-0.6-10.8-0.9
				c1.5,0.1,3,0.2,4.5,0.3C715.8,375.2,717.8,375.4,719.8,375.6z"/>
			<path class="st2" d="M719.8,365.4c0.2,1.8,0.9,3.5,1.7,5.2C720.7,368.9,719.9,367.2,719.8,365.4z"/>
			<path class="st1" d="M719.8,365.4c0.1,1.8,0.9,3.5,1.7,5.2C720.6,368.9,719.8,367.1,719.8,365.4z"/>
			<path class="st1" d="M712.7,354.9c3.9,1.4,6.4,4.4,7,9.8c-0.8-5.6-3.4-8.6-7.5-10c0.1,0,0.1,0,0.2,0
				C712.5,354.8,712.6,354.8,712.7,354.9z"/>
			<path class="st1" d="M712.4,354.8c-0.1,0-0.1,0-0.2,0c-0.2-0.1-0.4-0.1-0.7-0.2C711.8,354.6,712.1,354.7,712.4,354.8z"/>
			<path class="st2" d="M713.8,375.1c-1.5-0.1-3-0.2-4.5-0.3c-0.1,0-0.1,0-0.2,0c0,0,0,0,0-0.1C710.6,374.8,712.2,374.9,713.8,375.1
				z"/>
			<path class="st1" d="M710.4,354.3c0.4,0.1,0.8,0.1,1.1,0.2C711.2,354.4,710.8,354.4,710.4,354.3z"/>
			<path class="st2" d="M708.7,374.6L708.7,374.6c-44.7-3.2-89.5-6.4-134.2-9.7c-9.1-0.7-18.2-1.5-27.4-2.4c-0.3,0-0.7-0.1-1-0.1
				c-0.6-0.1-1.3-0.1-1.9-0.1c-0.2,0-0.5,0-0.7,0c-2.7,0-5,0.3-7.1,0.9c-0.2,0.1-0.4,0.1-0.7,0.2c-4.8,1.7-8,5.5-10.4,12
				c0,0,0,0,0,0.1c-5.6,15.5-18.1,21.6-32.8,24c-1.6,0.2-3.2,0.5-4.8,0.7c-1.6,0.2-3.2,0.3-4.8,0.4c-3.5,0.2-7,0.2-10.4,0.1
				c-1.8-0.1-3.5-0.3-5.2-0.5c1.7,0.2,3.3,0.3,5,0.4c3.5,0.2,7,0.2,10.4-0.1c3.3-0.2,6.5-0.6,9.7-1.1c14.7-2.4,27.2-8.5,32.8-24
				c3.6-9.7,9.2-13.4,18.8-13.2c0.6,0,1.2,0,1.9,0.1c0.3,0,0.6,0,0.9,0.1c9.1,0.9,18.2,1.7,27.4,2.4
				C619,368.1,663.9,371.3,708.7,374.6z"/>
			<path class="st1" d="M705.8,354L705.8,354c-41-5.3-81.6-12.1-121.9-19.9C624.3,341.9,665,348.6,705.8,354z"/>
			<path class="st1" d="M536.3,363.2c2.1-0.7,4.4-1,7.1-0.9c-9.1,0-14.6,3.8-18.1,13.2c-5.6,15.5-18.1,21.6-32.8,24
				c-1.6,0.2-3.3,0.5-4.9,0.7c1.6-0.2,3.2-0.4,4.8-0.7c14.7-2.4,27.2-8.5,32.8-24c0,0,0,0,0-0.1c2.4-6.5,5.6-10.2,10.4-12
				C535.9,363.4,536.1,363.3,536.3,363.2z"/>
			<path d="M536.3,363.2c-0.2,0.1-0.4,0.1-0.7,0.2C535.9,363.4,536.1,363.3,536.3,363.2z"/>
			<path d="M535.7,363.4c-4.7,1.8-8,5.5-10.4,12C527.6,369,530.9,365.2,535.7,363.4z"/>
			<path class="st1" d="M478.4,377.5c-0.3,0-0.5,0-0.8-0.1C477.9,377.4,478.1,377.5,478.4,377.5z"/>
			<path class="st1" d="M477.6,377.4c0,0-0.1,0-0.1,0c-2.1-0.5-3.8-1.4-5.2-2.6c0,0,0,0,0,0c-1-1-1.7-2.2-2.1-3.7
				C471.4,374.5,473.9,376.5,477.6,377.4C477.6,377.4,477.6,377.4,477.6,377.4z"/>
			<path class="st2" d="M472.3,374.8c0.5,0.5,1.1,1,1.8,1.4c-1.4-0.8-2.4-1.8-3.2-3.2C471.3,373.6,471.8,374.2,472.3,374.8
				C472.3,374.8,472.3,374.8,472.3,374.8z"/>
			<path class="st1" d="M472.3,374.8c-0.5-0.5-1-1.1-1.4-1.8c-0.1-0.2-0.2-0.4-0.4-0.6c-0.1-0.2-0.2-0.5-0.3-0.8
				c-0.1-0.2-0.2-0.4-0.2-0.6c0,0,0,0,0-0.1c-0.1-0.2-0.1-0.5-0.2-0.8c-0.1-0.3-0.1-0.5-0.2-0.8c-0.9-4.7-1.7-9.4-4.6-13.5
				c-0.4-0.6-0.8-1.2-1.2-1.8c0.5,0.6,1,1.3,1.4,2c0.5,0.8,1,1.5,1.4,2.3c0.1,0.2,0.2,0.4,0.3,0.7c1.5,3.3,2.1,6.8,2.8,10.3
				c0.1,0.6,0.3,1.2,0.5,1.7C470.6,372.5,471.4,373.8,472.3,374.8z"/>
			<path class="st2" d="M470.6,372.4c0.1,0.2,0.2,0.4,0.4,0.6C470.8,372.8,470.7,372.6,470.6,372.4z"/>
			<path class="st2" d="M470,371c0.1,0.2,0.1,0.4,0.2,0.6C470.1,371.4,470.1,371.2,470,371z"/>
			<path class="st2" d="M469.8,370.2c0.1,0.3,0.1,0.5,0.2,0.8C469.9,370.7,469.8,370.5,469.8,370.2z"/>
			<path class="st2" d="M469.8,369.6c0.1,0.5,0.2,1,0.4,1.5c-0.2-0.5-0.4-1.1-0.5-1.7c-0.7-3.5-1.3-7-2.8-10.3
				C468.5,362.4,469.1,366,469.8,369.6z"/>
			<path class="st2" d="M469.6,369.4c0,0.3,0.1,0.5,0.2,0.8c-0.1-0.2-0.1-0.5-0.2-0.7c-0.9-4.7-1.7-9.4-4.6-13.5
				c-1.7-2.4-3.5-4.5-5.4-6.4c-0.5-0.5-1-1-1.5-1.4c-4-3.7-8.5-6.6-13.4-9c-0.2-0.1-0.5-0.2-0.8-0.4c-0.8-0.4-1.6-0.8-2.4-1.1
				c0.9,0.4,1.8,0.8,2.7,1.2c0.2,0.1,0.5,0.2,0.8,0.4c4.9,2.4,9.4,5.4,13.4,9c0.5,0.5,1,0.9,1.4,1.3c0,0,0,0,0,0c0,0,0,0,0,0h0
				c0.2,0.2,0.4,0.4,0.6,0.6c0.1,0.1,0.3,0.3,0.4,0.4c0.1,0.1,0.3,0.3,0.4,0.4c0.2,0.2,0.3,0.4,0.5,0.6c0.2,0.2,0.4,0.5,0.6,0.7
				c0.5,0.6,0.9,1.1,1.3,1.7c0.4,0.6,0.8,1.1,1.2,1.8C467.9,360,468.7,364.7,469.6,369.4z"/>
			<path class="st1" d="M466.6,358.4c-0.4-0.8-0.9-1.6-1.4-2.3c-0.5-0.7-0.9-1.3-1.4-2c-0.4-0.6-0.9-1.1-1.3-1.7
				c-0.1-0.2-0.3-0.3-0.4-0.5c1.1,1.2,2.2,2.6,3.1,3.9C465.7,356.7,466.2,357.5,466.6,358.4z"/>
			<path class="st1" d="M462.4,352.5c-0.2-0.2-0.4-0.5-0.6-0.7c0,0,0,0,0,0c0.1,0.1,0.1,0.1,0.2,0.2
				C462.1,352.1,462.3,352.3,462.4,352.5z"/>
			<path class="st1" d="M461.3,351.2c0.2,0.2,0.4,0.4,0.5,0.6c0,0,0,0,0,0C461.6,351.5,461.5,351.4,461.3,351.2z"/>
			<path class="st1" d="M460.5,350.3c0.1,0.2,0.3,0.3,0.4,0.4C460.8,350.6,460.6,350.5,460.5,350.3z"/>
			<path class="st2" d="M459.6,398.9c-0.4-0.1-0.8-0.2-1.2-0.3c-2.2-0.6-4.3-1.2-6.4-2c1.9,0.7,4,1.3,6.1,1.9
				C458.6,398.6,459.1,398.8,459.6,398.9z"/>
			<path class="st1" d="M439.1,336.5c1.7,0.7,3.3,1.4,4.9,2.2c-1.6-0.8-3.3-1.5-5-2.2c-1.4-0.5-2.8-1-4.2-1.5
				C436.3,335.4,437.7,336,439.1,336.5z"/>
			<path class="st2" d="M422,364.7c-0.4-0.2-0.8-0.3-1.1-0.5c-0.1,0-0.1-0.1-0.2-0.1C421.2,364.3,421.6,364.5,422,364.7z"/>
			<path class="st1" d="M419.6,363.5c0.4,0.1,0.7,0.3,1,0.4C420.3,363.8,419.9,363.6,419.6,363.5z"/>
			<path class="st2" d="M419.7,363.7c0,0-0.1,0-0.1,0c-2.3-0.8-4.6-1.3-7.1-1.3c-0.6,0-1.2,0-1.8,0.1c-17.1,1.3-34.2,2.8-51.3,4.1
				c-39.5,3-79.1,5.9-118.6,8.8c-0.8,0-1.5,0.1-2.1,0.1c-0.2,0-0.3,0-0.5,0c-0.5,0-1,0-1.3-0.1c0.4,0,0.9,0,1.6,0
				c0.6,0,1.4-0.1,2.2-0.1c39.6-2.9,79.1-5.8,118.6-8.8c17.1-1.3,34.2-2.8,51.3-4.1c3.1-0.2,6.1,0.2,8.8,1.2
				C419.5,363.6,419.6,363.7,419.7,363.7z"/>
			<path class="st1" d="M415.9,362.6c0.9,0.2,1.8,0.4,2.7,0.6C417.7,362.9,416.9,362.7,415.9,362.6z"/>
			<path class="st1" d="M410.6,362.3c0,0,0.1,0,0.1,0c-17.1,1.3-34.2,2.8-51.3,4.1c-39.5,3-79,5.9-118.6,8.8
				c-0.9,0.1-1.6,0.1-2.2,0.1c0.6,0,1.3-0.1,2.1-0.1c39.5-2.9,79.1-5.8,118.6-8.8C376.4,365.1,393.5,363.6,410.6,362.3z"/>
		</g>
		<g>
		</g>
	</g>
</g>
</svg>
